<svg height="512" viewBox="0 0 46 60" width="512" xmlns="http://www.w3.org/2000/svg"><g id="Page-1" fill="none" fill-rule="evenodd"><g id="008---Files" fill="rgb(0,0,0)" fill-rule="nonzero"><path id="Shape" d="m4 53h3v3c0 2.209139 1.790861 4 4 4h31c2.209139 0 4-1.790861 4-4v-38c0-2.209139-1.790861-4-4-4h-2v-3c0-2.209139-1.790861-4-4-4h-10v-.5c0-3.58985087-2.9101491-6.5-6.5-6.5s-6.5 2.91014913-6.5 6.5v.5h-9c-2.209139 0-4 1.790861-4 4v4c0 .5522847.44771525 1 1 1s1-.4477153 1-1v-4c0-1.1045695.8954305-2 2-2h9v5h-2c-2.209139 0-4 1.790861-4 4v33h-3c-1.1045695 0-2-.8954305-2-2v-29c0-.5522847-.44771525-1-1-1s-1 .4477153-1 1v29c0 2.209139 1.790861 4 4 4zm11-46.5c0-2.48528137 2.0147186-4.5 4.5-4.5s4.5 2.01471863 4.5 4.5v.5h-6c-.5522847 0-1 .44771525-1 1s.4477153 1 1 1h18c1.1045695 0 2 .8954305 2 2v3h-12.142c-.5014457-1.9482742-2.3742805-3.2190002-4.3699561-2.9650329-1.9956755.2539674-3.4905487 1.953264-3.4880439 3.9650329v2c0 .5522847.4477153 1 1 1s1-.4477153 1-1v-2c0-1.1045695.8954305-2 2-2s2 .8954305 2 2v1.5c0 2.4852814-2.0147186 4.5-4.5 4.5s-4.5-2.0147186-4.5-4.5zm-6 11.5c0-1.1045695.8954305-2 2-2h2v.5c0 3.5898509 2.9101491 6.5 6.5 6.5s6.5-2.9101491 6.5-6.5v-.5h16c1.1045695 0 2 .8954305 2 2v38c0 1.1045695-.8954305 2-2 2h-31c-1.1045695 0-2-.8954305-2-2z"/><path id="Shape" d="m40 54h-3c-.5522847 0-1 .4477153-1 1s.4477153 1 1 1h4c.5522847 0 1-.4477153 1-1v-4c0-.5522847-.4477153-1-1-1s-1 .4477153-1 1z"/><path id="Shape" d="m14 29h25c.5522847 0 1-.4477153 1-1s-.4477153-1-1-1h-25c-.5522847 0-1 .4477153-1 1s.4477153 1 1 1z"/><path id="Shape" d="m14 35h25c.5522847 0 1-.4477153 1-1s-.4477153-1-1-1h-25c-.5522847 0-1 .4477153-1 1s.4477153 1 1 1z"/><path id="Shape" d="m14 41h25c.5522847 0 1-.4477153 1-1s-.4477153-1-1-1h-25c-.5522847 0-1 .4477153-1 1s.4477153 1 1 1z"/><path id="Shape" d="m14 47h13c.5522847 0 1-.4477153 1-1s-.4477153-1-1-1h-13c-.5522847 0-1 .4477153-1 1s.4477153 1 1 1z"/></g></g></svg>