<svg height="512pt" viewBox="-3 0 512 512" width="512pt" xmlns="http://www.w3.org/2000/svg"><path d="m471.371094 444.296875c-16.089844 0-29.582032 11.28125-33.003906 26.351563h-114.59375c24.097656-10.667969 45.746093-26.710938 63.074218-47.082032 26.175782-30.769531 40.960938-69.726562 41.875-110.09375h7.714844c10.300781 0 18.683594-8.382812 18.683594-18.683594v-30.339843c0-10.300781-8.382813-18.683594-18.683594-18.683594h-30.339844c-10.300781 0-18.683594 8.382813-18.683594 18.683594v30.339843c0 10.300782 8.382813 18.683594 18.683594 18.683594h7.621094c-1.808594 74.808594-54.402344 138.101563-127.253906 153.609375v-4.105469c0-10.300781-8.378906-18.683593-18.683594-18.683593h-30.339844c-10.300781 0-18.679687 8.382812-18.679687 18.683593v4.105469c-72.746094-15.519531-125.4375-79.078125-127.253907-153.609375h7.617188c10.304688 0 18.683594-8.382812 18.683594-18.683594v-30.339843c0-10.300781-8.378906-18.683594-18.683594-18.683594h-30.339844c-10.300781 0-18.679687 8.382813-18.679687 18.683594v30.339843c0 10.300782 8.378906 18.683594 18.679687 18.683594h7.714844c1.546875 69.351563 43.40625 130.0625 104.804688 157.175782h-114.445313c-3.425781-15.066407-16.917969-26.351563-33.007813-26.351563-18.664062 0-33.851562 15.183594-33.851562 33.851563 0 18.664062 15.1875 33.851562 33.851562 33.851562 16.089844 0 29.582032-11.285156 33.007813-26.351562h151.898437v7.667968c0 10.300782 8.382813 18.683594 18.683594 18.683594h30.339844c10.300781 0 18.683594-8.382812 18.683594-18.683594v-7.667968h151.898437c3.425781 15.066406 16.917969 26.351562 33.007813 26.351562 18.667968 0 33.851562-15.1875 33.851562-33.851562 0-18.667969-15.1875-33.851563-33.851562-33.851563zm-68.957032-149.507813v-30.339843c0-2.027344 1.652344-3.683594 3.683594-3.683594h30.339844c2.03125 0 3.683594 1.652344 3.683594 3.683594v30.339843c0 2.03125-1.652344 3.683594-3.683594 3.683594h-30.339844c-2.03125 0-3.683594-1.652344-3.683594-3.683594zm-337.308593 0v-30.339843c0-2.027344 1.652343-3.683594 3.679687-3.683594h30.339844c2.03125 0 3.683594 1.652344 3.683594 3.683594v30.339843c0 2.03125-1.652344 3.683594-3.683594 3.683594h-30.339844c-2.027344 0-3.679687-1.652344-3.679687-3.683594zm-31.253907 202.210938c-10.394531 0-18.851562-8.457031-18.851562-18.851562 0-10.398438 8.457031-18.855469 18.851562-18.855469 10.398438 0 18.855469 8.457031 18.855469 18.855469 0 10.394531-8.457031 18.851562-18.855469 18.851562zm237.613282-3.683594c0 2.03125-1.652344 3.683594-3.683594 3.683594h-30.339844c-2.03125 0-3.679687-1.652344-3.679687-3.683594v-30.339844c0-2.03125 1.648437-3.683593 3.679687-3.683593h30.339844c2.03125 0 3.683594 1.652343 3.683594 3.683593zm199.90625 3.683594c-10.394532 0-18.851563-8.457031-18.851563-18.851562 0-10.398438 8.457031-18.855469 18.851563-18.855469 10.394531 0 18.851562 8.457031 18.851562 18.855469 0 10.394531-8.457031 18.851562-18.851562 18.851562zm0 0"/><path d="m224.25 421.785156c2.148438 5.148438 7.144531 8.472656 12.71875 8.472656 3.660156 0 7.113281-1.421874 9.765625-4.054687 2.585937-2.605469 4.007813-6.058594 4.007813-9.71875v-104.347656c0-4.992188-2.257813-9.765625-6.199219-13.09375-2.824219-2.386719-4.441407-5.871094-4.441407-9.5625 0-3.46875 1.386719-6.691407 3.910157-9.082031 2.515625-2.386719 5.820312-3.609376 9.300781-3.410157 6.464844.347657 11.761719 5.90625 11.8125 12.394531.03125 3.722657-1.585938 7.238282-4.429688 9.648438-3.949218 3.34375-6.210937 8.132812-6.210937 13.140625v104.070313c0 5.59375 3.214844 10.628906 8.195313 12.832031 1.796874.796875 3.695312 1.1875 5.589843 1.1875 2.671875 0 5.328125-.785157 7.640625-2.328125 2.246094-1.503906 3.992188-3.617188 5.070313-6.164063l38.59375-92.914062c1.585937-3.828125-.226563-8.214844-4.050781-9.804688-3.824219-1.589843-8.214844.222657-9.800782 4.050781l-36.238281 87.246094v-98.175781c0-.589844.328125-1.207031.90625-1.695313 6.25-5.296874 9.796875-13.027343 9.734375-21.210937-.113281-14.507813-11.535156-26.480469-26.007812-27.257813-7.632813-.40625-14.886719 2.253907-20.425782 7.503907-5.460937 5.171875-8.59375 12.453125-8.59375 19.96875 0 8.117187 3.558594 15.777343 9.765625 21.019531.558594.472656.878907 1.070312.878907 1.636719v98.214843l-69.523438-167.394531c-.34375-.824219-.183594-1.792969.40625-2.464843l9.917969-11.304688c2.730469-3.117188 2.421875-7.855469-.691407-10.585938-3.113281-2.730468-7.851562-2.421874-10.582031.691407l-9.921875 11.308593c-4.398437 5.011719-5.539062 11.953126-2.980468 18.109376zm0 0"/><path d="m180.234375 185.695312h14.507813l-7.851563 8.949219c-2.730469 3.113281-2.421875 7.851563.691406 10.585938 1.425781 1.246093 3.1875 1.859375 4.941407 1.859375 2.085937 0 4.160156-.863282 5.640624-2.554688l16.214844-18.476562c.101563-.117188.191406-.242188.289063-.367188h75.855469l48.078124 54.800782c.585938.671874.746094 1.640624.40625 2.464843l-20.707031 49.847657c-1.585937 3.828124.226563 8.214843 4.050781 9.804687.941407.390625 1.914063.574219 2.875.574219 2.9375 0 5.730469-1.738282 6.925782-4.625l20.707031-49.847656c2.558594-6.15625 1.414063-13.097657-2.984375-18.109376l-39.394531-44.90625h14.507812c9.574219 0 17.363281-7.789062 17.363281-17.363281v-46.851562c0-9.496094-7.667968-17.230469-17.140624-17.351563v-34.316406c0-4.144531-3.355469-7.5-7.5-7.5-4.140626 0-7.5 3.355469-7.5 7.5v34.304688h-115.199219v-89.117188h115.199219v22.148438c0 4.144531 3.359374 7.5 7.5 7.5 4.144531 0 7.5-3.355469 7.5-7.5v-29.648438c0-4.144531-3.355469-7.5-7.5-7.5h-130.199219c-4.140625 0-7.5 3.355469-7.5 7.5v96.628906c-9.46875.121094-17.140625 7.855469-17.140625 17.351563v46.851562c0 9.574219 7.789062 17.363281 17.363281 17.363281zm-2.363281-64.214843c0-1.300781 1.0625-2.363281 2.363281-2.363281h144.753906c1.300781 0 2.363281 1.0625 2.363281 2.363281v46.851562c0 1.300781-1.0625 2.363281-2.363281 2.363281h-144.753906c-1.300781 0-2.363281-1.0625-2.363281-2.363281zm0 0"/></svg>